<?xml version="1.0" encoding="utf-8"?>
<!-- Generator: Adobe Illustrator 19.0.0, SVG Export Plug-In . SVG Version: 6.00 Build 0)  -->
<svg version="1.1" xmlns="http://www.w3.org/2000/svg" xmlns:xlink="http://www.w3.org/1999/xlink" x="0px" y="0px"
	 viewBox="0 0 175 712" style="enable-background:new 0 0 175 712;" xml:space="preserve">
<style type="text/css">
	.st0{fill:none;stroke:#000000;stroke-width:7;stroke-miterlimit:10;}
	.st1{display:none;}
	.st2{display:inline;fill:none;stroke:#000000;stroke-width:5;stroke-miterlimit:10;}
</style>
<g id="Layer_2">
	<polygon class="st0" points="159.3,695.8 129,663.6 9.5,190.3 9.5,8.8 159.3,8.8 	"/>
</g>
<g id="Layer_1" class="st1">
	<path class="st2" d="M140.5,84.4v-4.9c0-2.8,2.2-5,5-5h4.9c2.8,0,5,2.2,5,5v4.9c0,2.8-2.2,5-5,5h-4.9
		C142.7,89.4,140.5,87.2,140.5,84.4z"/>
	<path class="st2" d="M140.5,114.8v-4.9c0-2.8,2.2-5,5-5h4.9c2.8,0,5,2.2,5,5v4.9c0,2.8-2.2,5-5,5h-4.9
		C142.7,119.8,140.5,117.5,140.5,114.8z"/>
	<path class="st2" d="M140.5,145.6v-4.9c0-2.8,2.2-5,5-5h4.9c2.8,0,5,2.2,5,5v4.9c0,2.8-2.2,5-5,5h-4.9
		C142.7,150.6,140.5,148.3,140.5,145.6z"/>
	<path class="st2" d="M140.5,175.9V171c0-2.8,2.2-5,5-5h4.9c2.8,0,5,2.2,5,5v4.9c0,2.8-2.2,5-5,5h-4.9
		C142.7,180.9,140.5,178.7,140.5,175.9z"/>
	<path class="st2" d="M140.5,236.5v-4.9c0-2.8,2.2-5,5-5h4.9c2.8,0,5,2.2,5,5v4.9c0,2.8-2.2,5-5,5h-4.9
		C142.7,241.5,140.5,239.2,140.5,236.5z"/>
	<path class="st2" d="M140.5,297.9V293c0-2.8,2.2-5,5-5h4.9c2.8,0,5,2.2,5,5v4.9c0,2.8-2.2,5-5,5h-4.9
		C142.7,302.9,140.5,300.7,140.5,297.9z"/>
	<path class="st2" d="M140.5,360.4v-4.9c0-2.8,2.2-5,5-5h4.9c2.8,0,5,2.2,5,5v4.9c0,2.8-2.2,5-5,5h-4.9
		C142.7,365.4,140.5,363.2,140.5,360.4z"/>
	<path class="st2" d="M140.5,421.8v-4.9c0-2.8,2.2-5,5-5h4.9c2.8,0,5,2.2,5,5v4.9c0,2.8-2.2,5-5,5h-4.9
		C142.7,426.8,140.5,424.6,140.5,421.8z"/>
	<path class="st2" d="M140.5,480.9V476c0-2.8,2.2-5,5-5h4.9c2.8,0,5,2.2,5,5v4.9c0,2.8-2.2,5-5,5h-4.9
		C142.7,485.9,140.5,483.7,140.5,480.9z"/>
	<path class="st2" d="M140.5,542.4v-4.9c0-2.8,2.2-5,5-5h4.9c2.8,0,5,2.2,5,5v4.9c0,2.8-2.2,5-5,5h-4.9
		C142.7,547.4,140.5,545.1,140.5,542.4z"/>
	<path class="st2" d="M140.5,604.9v-4.9c0-2.8,2.2-5,5-5h4.9c2.8,0,5,2.2,5,5v4.9c0,2.8-2.2,5-5,5h-4.9
		C142.7,609.9,140.5,607.6,140.5,604.9z"/>
	<path class="st2" d="M140.5,666.3v-4.9c0-2.8,2.2-5,5-5h4.9c2.8,0,5,2.2,5,5v4.9c0,2.8-2.2,5-5,5h-4.9
		C142.7,671.3,140.5,669,140.5,666.3z"/>
	<path class="st2" d="M110.6,100.8v-4.9c0-2.8,2.2-5,5-5h4.9c2.8,0,5,2.2,5,5v4.9c0,2.8-2.2,5-5,5h-4.9
		C112.8,105.8,110.6,103.5,110.6,100.8z"/>
	<path class="st2" d="M110.6,131.1v-4.9c0-2.8,2.2-5,5-5h4.9c2.8,0,5,2.2,5,5v4.9c0,2.8-2.2,5-5,5h-4.9
		C112.8,136.1,110.6,133.8,110.6,131.1z"/>
	<path class="st2" d="M110.6,161.9v-4.9c0-2.8,2.2-5,5-5h4.9c2.8,0,5,2.2,5,5v4.9c0,2.8-2.2,5-5,5h-4.9
		C112.8,166.9,110.6,164.6,110.6,161.9z"/>
	<path class="st2" d="M110.6,192.2v-4.9c0-2.8,2.2-5,5-5h4.9c2.8,0,5,2.2,5,5v4.9c0,2.8-2.2,5-5,5h-4.9
		C112.8,197.2,110.6,195,110.6,192.2z"/>
</g>
<g id="Layer_3">
	<circle cx="147.7" cy="663.5" r="6.2"/>
	<circle cx="147.7" cy="602" r="6.2"/>
	<circle cx="147.7" cy="539.5" r="6.2"/>
	<circle cx="147.7" cy="478.1" r="6.2"/>
	<circle cx="147.7" cy="419" r="6.2"/>
	<circle cx="147.7" cy="357.6" r="6.2"/>
	<circle cx="147.7" cy="295.1" r="6.2"/>
	<circle cx="147.7" cy="233.6" r="6.2"/>
	<circle cx="117.8" cy="189.4" r="6.2"/>
	<circle cx="147.7" cy="173.1" r="6.2"/>
	<circle cx="117.8" cy="159.1" r="6.2"/>
	<circle cx="147.7" cy="142.7" r="6.2"/>
	<circle cx="117.8" cy="128.3" r="6.2"/>
	<circle cx="147.7" cy="111.9" r="6.2"/>
	<circle cx="117.8" cy="97.9" r="6.2"/>
	<circle cx="147.7" cy="81.6" r="6.2"/>
</g>
</svg>
